<svg width="80" height="80" fill="none" xmlns="http://www.w3.org/2000/svg"><circle opacity=".08" cx="40" cy="40" r="40" fill="#E9554E"/><circle opacity=".1" cx="40" cy="40" r="36" fill="#E9554E"/><path d="M40 26.666a13.333 13.333 0 1013.333 13.333A13.35 13.35 0 0040 26.666zm6.1 17.862a1.11 1.11 0 01-.351 1.828 1.11 1.11 0 01-1.22-.257l-4.333-4.333a.28.28 0 00-.394 0l-4.333 4.333a1.124 1.124 0 01-1.571 0 1.11 1.11 0 010-1.57l4.333-4.334a.276.276 0 000-.392l-4.333-4.334a1.111 1.111 0 111.573-1.57l4.334 4.334a.278.278 0 00.393 0l4.333-4.334a1.113 1.113 0 011.928.777 1.111 1.111 0 01-.359.794l-4.333 4.334a.278.278 0 000 .392l4.333 4.332z" fill="#E9554E"/></svg>