<svg width="16" height="16" fill="none" xmlns="http://www.w3.org/2000/svg"><path d="M16 8a8 8 0 10-8 8h.08A7.927 7.927 0 0016 8.08V8zm-1.333 0a6.63 6.63 0 01-.24 1.753.326.326 0 01-.174.214A.34.34 0 0114 10a2.313 2.313 0 01-1.013-.847l-1.48-2.22a1.667 1.667 0 00-1.387-.74h-.287a1.833 1.833 0 010-3.666h1.847a.32.32 0 01.193.06A6.666 6.666 0 0114.667 8zM1.453 6.773A.327.327 0 011.78 6.5h2.887a2.293 2.293 0 011.646.667l.754.766a2.333 2.333 0 01.093 3.2l-.907 1.02a1.66 1.66 0 00-.42 1.107v.553a.327.327 0 01-.153.28.347.347 0 01-.313 0A6.667 6.667 0 011.333 8c0-.412.04-.823.12-1.227z" fill="#A6A7AC"/></svg>