<svg width="91" height="15" fill="none" xmlns="http://www.w3.org/2000/svg"><g clip-path="url(#clip0_11310_367)"><path d="M31.333 10.713c-1.238 0-2.226-.36-2.966-1.079-.74-.719-1.109-1.651-1.109-2.798 0-1.137.375-2.073 1.125-2.807.75-.735 1.732-1.102 2.95-1.102 1.227 0 2.215.367 2.964 1.102.75.734 1.125 1.67 1.125 2.807 0 1.147-.37 2.08-1.11 2.798-.738.72-1.732 1.08-2.98 1.08zm0-1.93c.623 0 1.094-.19 1.41-.567.317-.377.475-.837.475-1.38 0-.523-.161-.981-.483-1.374-.322-.392-.79-.588-1.403-.588-.604 0-1.066.196-1.388.588-.322.393-.483.85-.483 1.374 0 .523.158.978.475 1.365.318.387.783.581 1.397.581zM40.419 10.713c-1.238 0-2.226-.36-2.966-1.079-.74-.719-1.109-1.651-1.109-2.798 0-1.137.375-2.073 1.125-2.807.75-.735 1.732-1.102 2.95-1.102 1.227 0 2.216.367 2.965 1.102.75.734 1.124 1.67 1.124 2.807 0 1.147-.37 2.08-1.11 2.798-.738.72-1.732 1.08-2.98 1.08zm0-1.93c.624 0 1.094-.19 1.41-.567.317-.377.476-.837.476-1.38 0-.523-.162-.981-.484-1.374-.322-.392-.79-.588-1.403-.588-.604 0-1.066.196-1.388.588-.322.393-.483.85-.483 1.374 0 .523.158.978.475 1.365.318.387.783.581 1.397.581zM51.504 0h2.188v10.548h-1.947l-.136-.951c-.563.724-1.388 1.086-2.475 1.086-1.097 0-1.984-.355-2.663-1.064-.68-.709-1.019-1.642-1.019-2.798 0-1.187.342-2.13 1.027-2.83.683-.7 1.579-1.049 2.686-1.049.986 0 1.765.352 2.34 1.056V0zm-2.037 4.904c-.554 0-.996.179-1.328.536-.332.357-.498.817-.498 1.38 0 .554.163 1.011.49 1.374.327.362.772.543 1.336.543.553 0 1.025-.156 1.418-.468.392-.312.588-.794.588-1.449 0-.592-.201-1.061-.604-1.403a2.099 2.099 0 00-1.402-.513zM60.918 3.848l-1.072 1.358a2.987 2.987 0 00-1.765-.543c-.342 0-.607.055-.793.166-.186.11-.279.262-.279.452 0 .413.367.628 1.102.65.332.01.63.032.897.067.267.036.553.106.86.211.307.107.56.24.763.4.201.16.372.39.513.687.14.297.212.64.212 1.033.01.685-.257 1.273-.8 1.765-.543.494-1.363.74-2.46.74a5.315 5.315 0 01-3.5-1.267l.935-1.54c.735.604 1.6.916 2.596.936.322.01.591-.045.807-.166.216-.12.319-.277.309-.468 0-.412-.422-.634-1.267-.664a5.742 5.742 0 01-1.08-.16 3.974 3.974 0 01-.995-.392 2.03 2.03 0 01-.762-.74 2.074 2.074 0 01-.287-1.094c0-.794.312-1.393.936-1.795.624-.401 1.383-.604 2.278-.604 1.156.002 2.106.324 2.852.968zM62.463 1.298l2.173-.24V3.14h1.887v1.81h-1.901v2.807c0 .664.281.996.845.996.362 0 .664-.06.906-.18l.498 1.81a5.068 5.068 0 01-1.57.331c-.875.04-1.567-.168-2.075-.626-.508-.458-.762-1.235-.762-2.332V1.3zM73.21 3.954l.076-.86h2.037v7.454H73.36l-.12-.936a2.109 2.109 0 01-1.004.815 3.576 3.576 0 01-1.29.287c-1.137.01-2.063-.335-2.776-1.034-.715-.699-1.072-1.653-1.072-2.86 0-1.207.37-2.162 1.109-2.866.74-.704 1.672-1.046 2.798-1.026.484 0 .923.09 1.32.272.4.18.693.432.884.754zm-1.976.89c-.563 0-1.032.179-1.403.536-.373.357-.559.838-.559 1.442 0 .603.186 1.081.558 1.433.372.353.84.528 1.404.528.583 0 1.059-.19 1.426-.573.367-.382.551-.82.551-1.312 0-.574-.174-1.06-.52-1.456-.348-.4-.833-.598-1.457-.598zM81.888 8.148l1.374 1.42c-.775.764-1.745 1.146-2.912 1.146-1.167 0-2.138-.326-2.912-.98-.775-.654-1.162-1.62-1.162-2.898 0-1.208.392-2.16 1.176-2.86.786-.699 1.746-1.049 2.883-1.049 1.146 0 2.047.342 2.7 1.027L81.83 5.327c-.383-.292-.85-.438-1.404-.438-.564 0-1.031.173-1.403.52-.373.348-.559.823-.559 1.427 0 .573.186 1.029.559 1.365.371.337.825.506 1.358.506.261 0 .536-.05.822-.15.287-.102.516-.237.686-.409zM88.895 6.829a4.796 4.796 0 001.767-3.72h-2.173a2.638 2.638 0 01-2.09 2.576V.001h-2.173v10.548h2.173V7.972a2.638 2.638 0 012.09 2.577h2.173a4.795 4.795 0 00-1.767-3.72zM24.715 9.31c1.037-.533 1.57-1.403 1.6-2.611.026-.68-.169-1.314-.585-1.901h.586V2.867h-3.991v.002c-1.101.007-2.04.338-2.815.994-.786.664-1.177 1.6-1.177 2.807 0 1.147.364 2.06 1.094 2.739.729.679 1.707 1.018 2.935 1.018 1.207 0 1.81.427 1.81 1.283 0 .442-.178.782-.535 1.019-.358.237-.793.354-1.306.354-1.177 0-1.8-.503-1.871-1.508h-2.022c-.02 1.086.304 1.928.973 2.527.669.599 1.642.898 2.92.898 1.106 0 2.057-.287 2.852-.86.794-.573 1.192-1.384 1.192-2.43 0-1.107-.554-1.907-1.66-2.4zM23.69 7.983c-.363.312-.805.468-1.328.468-.553 0-1.014-.164-1.38-.49-.368-.327-.551-.758-.551-1.291 0-.584.178-1.042.536-1.374.357-.331.822-.497 1.396-.497.533 0 .978.181 1.335.543.357.362.536.805.536 1.328 0 .563-.182 1-.544 1.313z" fill="#25202D"/><path d="M6.11 6.11A6.117 6.117 0 010 0h2.963A3.151 3.151 0 006.11 3.148 3.151 3.151 0 009.258 0h2.963c0 3.37-2.74 6.11-6.11 6.11zM12.221 7.592H0v2.963h12.221V7.592zM12.221 12.036H0V15h12.221v-2.963z" fill="#8B4AFF"/></g><defs><clipPath id="clip0_11310_367"><path fill="#fff" d="M0 0h90.662v15H0z"/></clipPath></defs></svg>