<svg width="512" height="512" fill="none" xmlns="http://www.w3.org/2000/svg"><g clip-path="url(#clip0_503_2)"><path d="M0 30C0 13.431 13.431 0 30 0h452c16.569 0 30 13.431 30 30v452c0 16.569-13.431 30-30 30H30c-16.569 0-30-13.431-30-30V30z" fill="#fff"/><path d="M255.753 228.776C189.711 228.776 136 175.037 136 109h58.064c0 34.031 27.682 61.7 61.689 61.7 34.025 0 61.689-27.687 61.689-61.7h58.064c0 66.054-53.711 119.776-119.753 119.776zM375.506 257.813H136v58.075h239.506v-58.075zM375.506 344.925H136V403h239.506v-58.075z" fill="#8B4AFF"/></g><defs><clipPath id="clip0_503_2"><path fill="#fff" d="M0 0h512v512H0z"/></clipPath></defs></svg>