<svg width="59" height="14" fill="none" xmlns="http://www.w3.org/2000/svg"><path d="M30.442 9.125A2.135 2.135 0 1131.65 5.23l1.237-1.709c-1.54-1.115-3.523-1.112-5.06.008a4.305 4.305 0 005.071 6.958L31.638 8.76a2.125 2.125 0 01-1.196.366zM4.313 2.7A4.29 4.29 0 00.015 6.98L0 13.997l2.459.005.006-3.137A4.29 4.29 0 104.314 2.7zM4.3 9.552a2.564 2.564 0 01-2.558-2.569c1.071 0 4.115.01 5.127.01A2.564 2.564 0 014.3 9.553zM56.365 2.71V.002h-2.448V2.71h-1.83v2.156h1.83v6.427h2.448V4.866h2.015V2.71h-2.015zM47.94 2.778a4.24 4.24 0 00-3.318.758 4.247 4.247 0 00-1.725 3.407v.001l-.005 4.338h2.463V6.838c.078-.998.776-1.798 1.655-1.905a2.117 2.117 0 01.701.065c.786.247 1.365 1.062 1.365 2.026v4.267h2.356V7.024c0-2.191-1.53-4.002-3.492-4.246zM15.9 3.252a4.29 4.29 0 00-5.82 1.654 4.226 4.226 0 00-.524 2.44A4.23 4.23 0 0010.61 9.85a4.294 4.294 0 006.04.386l-1.402-1.588a2.124 2.124 0 01-3.317-.853h6.09c.363-1.847-.469-3.627-2.122-4.542zm-4 3.008a2.12 2.12 0 01.607-.892 2.126 2.126 0 013.354.892H11.9zM39.742 3.252a4.29 4.29 0 00-5.82 1.654 4.226 4.226 0 00-.524 2.44 4.23 4.23 0 001.055 2.503 4.294 4.294 0 006.04.386L39.09 8.648a2.119 2.119 0 01-1.15.469 2.124 2.124 0 01-2.167-1.322h6.09c.363-1.847-.468-3.627-2.121-4.542zm-4 3.008a2.12 2.12 0 01.608-.892 2.126 2.126 0 013.354.892h-3.962zM25.889 3.51a4.507 4.507 0 00-.742-.439 3.67 3.67 0 00-1.049-.294 4.243 4.243 0 00-2.92.498l-.033.019-.066.041a4.286 4.286 0 00-1.886 2.554l-.006.023a4.689 4.689 0 00-.07.326c-.04.233-.061.469-.062.706v.234l-.006 4.104h2.463V6.84c.079-.999.776-1.799 1.656-1.906a2.116 2.116 0 01.701.065c.243.077.467.208.66.38l1.36-1.866v-.001z" fill="#888A90"/></svg>