<svg width="46" height="46" fill="none" xmlns="http://www.w3.org/2000/svg"><mask id="a" style="mask-type:alpha" maskUnits="userSpaceOnUse" x="0" y="0" width="46" height="46"><path d="M37.08.922H8.92a8 8 0 00-8 8v28.16a8 8 0 008 8h28.16a8 8 0 008-8V8.922a8 8 0 00-8-8z" fill="#F4F5F7"/></mask><g mask="url(#a)"><path d="M46 0H0v47h46V0z" fill="#fff"/><path d="M23.037 10c-5.513-.01-9.99 4.4-10.001 9.85L13 35.989l5.721.011.014-7.216c1.293.608 2.737.95 4.264.953 5.512.01 9.99-4.4 10.001-9.85.011-5.45-4.45-9.876-9.963-9.887zm-.03 15.767c-3.295-.007-5.96-2.652-5.954-5.91 2.493 0 9.577.023 11.93.023-.006 3.257-2.682 5.893-5.976 5.887z" fill="#FF6672"/></g></svg>